<?xml version="1.0" standalone="no"?>
<!DOCTYPE svg PUBLIC "-//W3C//DTD SVG 20010904//EN"
 "http://www.w3.org/TR/2001/REC-SVG-20010904/DTD/svg10.dtd">
<svg version="1.0" xmlns="http://www.w3.org/2000/svg"
 width="1280.000000pt" height="1280.000000pt" viewBox="0 0 1280.000000 1280.000000"
 preserveAspectRatio="xMidYMid meet">
<metadata>
Created by potrace 1.15, written by Peter Selinger 2001-2017
</metadata>
<g transform="translate(0.000000,1280.000000) scale(0.100000,-0.100000)"
fill="#000000" stroke="none">
<path d="M5205 11101 c-39 -10 -209 -99 -261 -137 -22 -16 -64 -47 -94 -69
-62 -46 -99 -70 -193 -119 -67 -37 -91 -44 -242 -70 -178 -32 -447 -97 -555
-134 -311 -108 -373 -133 -478 -190 -62 -34 -115 -62 -118 -62 -2 0 -68 -31
-147 -69 -78 -37 -153 -72 -167 -76 -14 -4 -41 -18 -60 -30 -19 -12 -110 -63
-202 -114 -92 -51 -190 -110 -217 -131 -29 -23 -81 -50 -127 -65 -141 -48
-358 -159 -417 -214 -16 -14 -38 -43 -48 -63 -11 -21 -27 -38 -36 -38 -25 0
-223 112 -268 151 -11 10 -128 54 -260 97 -376 126 -424 140 -524 161 -51 11
-126 35 -166 54 -115 55 -115 36 0 -85 139 -144 333 -329 519 -492 86 -76 160
-145 163 -152 2 -7 50 -39 105 -71 55 -32 128 -74 162 -93 33 -20 62 -42 64
-50 1 -8 -18 -39 -44 -67 -45 -53 -94 -156 -94 -200 0 -13 -12 -41 -26 -63
-61 -92 -95 -331 -58 -403 23 -45 172 -195 214 -217 66 -33 157 -53 219 -47
68 6 67 6 136 -96 32 -49 37 -62 27 -75 -7 -10 -20 -33 -30 -52 -9 -20 -33
-56 -53 -80 -52 -65 -209 -299 -209 -312 0 -7 -9 -22 -21 -34 -15 -16 -26 -52
-39 -126 l-18 -103 23 -77 c30 -97 35 -106 87 -155 61 -56 123 -90 215 -118
109 -34 186 -33 299 5 105 35 120 36 134 11 5 -11 27 -39 48 -63 20 -24 45
-64 55 -88 55 -134 69 -154 226 -311 86 -86 194 -200 241 -254 141 -161 764
-797 930 -948 302 -277 387 -367 553 -590 32 -42 120 -143 196 -223 77 -80
150 -162 164 -182 13 -21 50 -77 82 -127 32 -49 77 -112 99 -140 23 -27 61
-77 86 -110 184 -250 484 -552 740 -745 40 -30 109 -85 154 -121 81 -66 189
-139 205 -139 14 0 338 -198 455 -278 161 -110 130 -83 434 -367 61 -57 112
-122 176 -224 16 -25 45 -70 65 -100 20 -29 41 -60 46 -69 6 -9 33 -48 61 -86
86 -119 378 -557 442 -662 66 -109 142 -273 203 -434 55 -145 73 -189 131
-310 27 -58 57 -121 65 -140 8 -19 21 -48 29 -63 8 -16 14 -35 14 -43 0 -12
284 -14 2028 -14 l2029 0 -96 193 c-118 236 -147 280 -311 468 -116 134 -225
275 -381 494 -39 55 -93 127 -121 160 -27 33 -101 125 -165 205 -65 80 -146
179 -183 221 -56 65 -260 357 -260 373 0 5 -111 191 -186 309 -90 144 -106
171 -164 282 -83 160 -186 402 -220 519 -28 96 -65 265 -96 441 -7 44 -18 103
-23 130 -6 28 -15 111 -21 185 -7 74 -15 146 -19 160 -17 53 5 63 59 26 19
-13 76 -45 125 -71 50 -27 122 -67 160 -90 101 -61 413 -239 462 -263 23 -12
71 -46 106 -77 36 -30 74 -55 85 -55 11 0 36 -13 57 -30 21 -16 43 -30 50 -30
7 0 29 -13 50 -30 21 -16 48 -30 60 -30 37 0 139 -53 191 -98 26 -23 55 -42
65 -42 10 0 20 -4 24 -9 11 -19 189 -111 214 -111 23 0 151 -57 201 -89 8 -6
55 -28 103 -50 66 -30 94 -38 106 -31 39 20 181 182 204 232 59 125 74 220 40
250 -10 9 -49 33 -88 54 -83 45 -157 99 -204 148 -19 20 -38 36 -43 36 -6 0
-29 17 -53 37 -24 21 -69 52 -101 68 -32 17 -73 40 -91 52 -18 11 -56 24 -84
28 -44 6 -61 16 -136 81 -46 41 -89 74 -94 74 -6 0 -25 11 -43 25 -18 14 -41
25 -50 25 -10 0 -30 9 -45 20 -40 27 -105 47 -182 53 -63 6 -80 14 -290 133
-123 70 -253 143 -289 162 -68 36 -137 75 -283 161 -49 28 -91 51 -93 51 -9 0
-378 212 -396 227 -18 16 -22 47 -38 288 -12 204 -33 394 -54 493 -22 104 -46
304 -46 388 0 40 -4 94 -10 121 -11 57 -43 247 -71 433 -11 74 -27 203 -34
285 -8 83 -18 173 -24 200 -19 98 -60 392 -71 515 -7 69 -18 158 -26 199 -17
86 -30 293 -39 611 -7 252 -19 328 -69 448 -41 99 -107 190 -213 294 -110 109
-216 158 -438 207 -91 20 -281 79 -385 120 -99 39 -294 143 -360 192 -36 27
-91 63 -123 81 -32 18 -99 57 -150 87 -160 94 -279 156 -612 317 -38 18 -116
47 -172 64 -57 16 -128 41 -159 55 -31 14 -62 25 -69 25 -7 0 -54 22 -106 49
-52 27 -117 58 -144 69 -61 24 -251 138 -356 213 -41 30 -109 71 -150 92 -40
20 -108 64 -149 96 -41 33 -87 69 -102 81 -31 24 -79 40 -122 40 -16 0 -58 14
-93 32 -60 29 -74 32 -177 34 -61 2 -124 0 -141 -5z m-45 -3185 c65 -5 182
-39 209 -60 8 -6 23 -30 33 -53 10 -23 23 -45 28 -48 14 -9 10 -246 -5 -251
-16 -7 -45 7 -157 73 -172 102 -362 210 -383 217 -38 14 -85 51 -85 68 0 29
40 47 125 56 78 8 96 8 235 -2z m-829 -404 c13 -10 65 -40 114 -67 50 -26 113
-60 140 -75 149 -79 421 -234 495 -280 47 -29 139 -84 205 -121 181 -102 210
-122 213 -145 2 -12 -13 -50 -33 -85 -20 -35 -40 -71 -44 -79 -4 -8 -24 -28
-44 -44 -36 -29 -40 -30 -150 -30 -151 -1 -225 21 -370 108 -213 128 -414 327
-512 504 -93 168 -105 189 -130 212 -34 32 -32 58 8 91 37 33 75 36 108 11z"/>
</g>
</svg>
